<svg xmlns="http://www.w3.org/2000/svg" width="32" height="32" viewBox="0 0 32 32" fill="none">
  <g clip-path="url(#clip0_1647_32072)">
    <path opacity="0.2" d="M26.7207 5.37325C26.8698 5.32978 27.0269 5.32161 27.1796 5.34938C27.3324 5.37715 27.4765 5.4401 27.6007 5.53325C27.7249 5.6264 27.8257 5.74718 27.8952 5.88604C27.9646 6.02489 28.0007 6.17801 28.0007 6.33325V23.6666C28.0007 23.8218 27.9646 23.9749 27.8952 24.1138C27.8257 24.2526 27.7249 24.3734 27.6007 24.4666C27.4765 24.5597 27.3324 24.6227 27.1796 24.6504C27.0269 24.6782 26.8698 24.67 26.7207 24.6266L15 21.208V8.79179L26.7207 5.37325Z" fill="#0A65CC"/>
    <path d="M28.0007 6.33325V23.6666C28.0007 23.8218 27.9646 23.9749 27.8952 24.1138C27.8257 24.2526 27.7249 24.3734 27.6007 24.4666C27.4765 24.5597 27.3324 24.6227 27.1796 24.6504C27.0269 24.6782 26.8698 24.67 26.7207 24.6266L4.72073 18.2099C4.51302 18.1493 4.33056 18.023 4.20073 17.8499C4.07091 17.6768 4.00073 17.4663 4.00073 17.2499V12.7499C4.00073 12.5335 4.07091 12.323 4.20073 12.1499C4.33056 11.9768 4.51302 11.8505 4.72073 11.7899L26.7207 5.37325C26.8698 5.32978 27.0269 5.32161 27.1796 5.34938C27.3324 5.37715 27.4765 5.4401 27.6007 5.53325C27.7249 5.6264 27.8257 5.74718 27.8952 5.88604C27.9646 6.02489 28.0007 6.17801 28.0007 6.33325V6.33325Z" stroke="#0A65CC" stroke-width="2" stroke-linecap="round" stroke-linejoin="round"/>
    <path d="M9 19.4582V24.0001C9 24.2653 9.10536 24.5197 9.29289 24.7072C9.48043 24.8948 9.73478 25.0001 10 25.0001H14C14.2652 25.0001 14.5196 24.8948 14.7071 24.7072C14.8946 24.5197 15 24.2653 15 24.0001V8.79199" stroke="#0A65CC" stroke-width="2" stroke-linecap="round" stroke-linejoin="round"/>
  </g>
  <defs>
    <clipPath id="clip0_1647_32072">
      <rect width="32" height="32" fill="white" transform="matrix(-1 0 0 1 32 0)"/>
    </clipPath>
  </defs>
</svg>