<svg xmlns="http://www.w3.org/2000/svg" width="40" height="40" viewBox="0 0 40 40" fill="none">
  <g clip-path="url(#clip0_4112_12829)">
    <path opacity="0.2" d="M22.499 33.7473V6.24731C22.499 5.91579 22.3673 5.59785 22.1328 5.36343C21.8984 5.12901 21.5805 4.99731 21.249 4.99731H6.24896C5.91744 4.99731 5.5995 5.12901 5.36508 5.36343C5.13066 5.59785 4.99896 5.91579 4.99896 6.24731V33.7473" fill="white"/>
    <path d="M2.5 33.7474H37.5" stroke="white" stroke-width="2" stroke-linecap="round" stroke-linejoin="round"/>
    <path d="M22.499 33.7473V6.24731C22.499 5.91579 22.3673 5.59785 22.1328 5.36343C21.8984 5.12901 21.5805 4.99731 21.249 4.99731H6.24896C5.91744 4.99731 5.5995 5.12901 5.36508 5.36343C5.13066 5.59785 4.99896 5.91579 4.99896 6.24731V33.7473" stroke="white" stroke-width="2" stroke-linecap="round" stroke-linejoin="round"/>
    <path d="M34.999 33.7473V16.2473C34.999 15.9158 34.8673 15.5979 34.6329 15.3634C34.3984 15.129 34.0805 14.9973 33.749 14.9973H22.499" stroke="white" stroke-width="2" stroke-linecap="round" stroke-linejoin="round"/>
    <path d="M9.99896 11.2473H14.999" stroke="white" stroke-width="2" stroke-linecap="round" stroke-linejoin="round"/>
    <path d="M12.499 21.2474H17.499" stroke="white" stroke-width="2" stroke-linecap="round" stroke-linejoin="round"/>
    <path d="M9.99896 27.4974H14.999" stroke="white" stroke-width="2" stroke-linecap="round" stroke-linejoin="round"/>
    <path d="M27.499 27.4974H29.999" stroke="white" stroke-width="2" stroke-linecap="round" stroke-linejoin="round"/>
    <path d="M27.499 21.2474H29.999" stroke="white" stroke-width="2" stroke-linecap="round" stroke-linejoin="round"/>
  </g>
  <defs>
    <clipPath id="clip0_4112_12829">
      <rect width="40" height="40" fill="white"/>
    </clipPath>
  </defs>
</svg>